<svg width="512" height="512" viewBox="0 0 512 512" fill="none" xmlns="http://www.w3.org/2000/svg">
  <rect width="512" height="512" rx="112" fill="#0F3B37"/>
  <path d="M112 394V118H248C309.856 118 350 152.832 350 206C350 243.216 328.048 271.68 292 282.5L366 394H292L228 296H184V394H112ZM184 243H236C268.784 243 286 230.352 286 205.5C286 180.648 268.784 168 236 168H184V243Z" fill="#FFF7EB"/>
  <circle cx="374" cy="354" r="52" fill="#D7A44D"/>
  <path d="M372.667 326C351.423 326 334 343.423 334 364.667C334 385.91 351.423 403.333 372.667 403.333C393.91 403.333 411.333 385.91 411.333 364.667C411.333 343.423 393.91 326 372.667 326ZM390.833 368.917H376.917V382.833H368.417V368.917H354.5V360.417H368.417V346.5H376.917V360.417H390.833V368.917Z" fill="#0F3B37"/>
</svg>
